<svg xmlns="http://www.w3.org/2000/svg" width="90" height="90" viewBox="0 0 90 90">
  <rect width="90" height="90" rx="16" fill="#DA720F"/>
  <svg x="12" y="12" width="66" height="66" viewBox="241.25 0.02 63.50 63.50">
    <g transform="translate(0 4)">
      <path d="M298.493138,19.1939109 C297.923752,18.4703866 297.04646,18.1158597 296.403763,18.3570344 L283,23.2914703 L287.96318,34.2818048 L298.735065,21.3283077 C299.165158,20.8146054 299.062523,19.919847 298.493138,19.1939109" fill="#FFFFFF"/>
      <path d="M273.267442,45.5441514 C272.936034,45.9516458 272.911302,46.604137 273.200666,47.2441282 C273.494976,47.8841195 274.058866,48.4091124 274.669745,48.6141096 L294.331669,55.1915199 C294.917817,55.3865173 295.454501,55.261519 295.756231,54.8565245 C296.062908,54.45403 296.08022,53.8315385 295.808169,53.2165469 L287.458652,34.2818048 L273.267442,45.5441514" fill="#FFFFFF"/>
      <path d="M283,23.702198 L273.211589,1.74912484 C272.926299,1.10496479 272.360637,0.573901531 271.743328,0.369835559 C271.126018,0.165769586 270.557897,0.323121661 270.272607,0.773050252 L247.188682,37.283649 C246.834528,37.8442157 246.98947,38.7268625 247.56497,39.4201951 C248.140469,40.1135277 248.986503,40.440525 249.61365,40.2069555 L283,23.702198" fill="#FFFFFF"/>
    </g>
  </svg>
</svg>
